<svg
    width="64px" 
    height="64px"
    viewBox="0 0 64 64" 
    fill="none" 
    xmlns="http://www.w3.org/2000/svg">
  <rect 
    x="8" 
    y="12" 
    width="48" 
    height="44" 
    rx="2" 
    ry="2" 
    fill="#E6E6E6" 
    stroke="#000000" 
    stroke-width="2"/>
  <rect 
    x="8" 
    y="8" 
    width="48" 
    height="6" 
    fill="#D1D1D1" 
    stroke="#000000" 
    stroke-width="2"/>
  <rect 
    x="12" 
    y="16" 
    width="10" 
    height="2" 
    fill="#000000"/>
  <rect 
    x="12" 
    y="20" 
    width="10" 
    height="2" 
    fill="#000000"/>
  <rect 
    x="24" 
    y="16" 
    width="28" 
    height="6" 
    fill="#C4C4C4" 
    stroke="#000000" 
    stroke-width="2"/>
  <rect 
    x="24" 
    y="26" 
    width="10" 
    height="10" 
    fill="#D1D1D1" 
    stroke="#000000" 
    stroke-width="2"/>
  <circle 
    cx="29" 
    cy="31" 
    r="1" 
    fill="#000000"/>
  <circle 
    cx="33" 
    cy="31" 
    r="1" 
    fill="#000000"/>
  <rect 
    x="36" 
    y="26" 
    width="10" 
    height="10" 
    fill="#E6E6E6" 
    stroke="#000000" 
    stroke-width="2"/>
  <rect 
    x="24" 
    y="38" 
    width="10" 
    height="10" 
    fill="#D1D1D1" 
    stroke="#000000" 
    stroke-width="2"/>
  <rect 
    x="36" 
    y="38" 
    width="10" 
    height="10" 
    fill="#E6E6E6" 
    stroke="#000000" 
    stroke-width="2"/>
  <circle 
    cx="41" 
    cy="43" 
    r="1" 
    fill="#000000"/>
  <circle 
    cx="45" 
    cy="43" 
    r="1" 
    fill="#000000"/>
  <rect 
    x="24" 
    y="50" 
    width="10" 
    height="10" 
    fill="#D1D1D1" 
    stroke="#000000" 
    stroke-width="2"/>
  <rect 
    x="36" 
    y="50" 
    width="10" 
    height="10" 
    fill="#E6E6E6" 
    stroke="#000000" 
    stroke-width="2"/>
  <circle 
    cx="29" 
    cy="55" 
    r="1" 
    fill="#000000"/>
  <circle 
    cx="33" 
    cy="55" 
    r="1" 
    fill="#000000"/>
  <circle 
    cx="24" 
    cy="7" 
    r="1" 
    fill="#000000"/>
  <circle 
    cx="30" 
    cy="7" 
    r="1" 
    fill="#000000"/>
  <circle 
    cx="36" 
    cy="7" 
    r="1" 
    fill="#000000"/>
</svg>
